<?xml version="1.0" encoding="UTF-8"?>
<!DOCTYPE svg PUBLIC "-//W3C//DTD SVG 1.1//EN" "http://www.w3.org/Graphics/SVG/1.1/DTD/svg11.dtd">
<svg version="1.1" xmlns="http://www.w3.org/2000/svg" x="0" y="0" width="144" height="144" viewBox="0, 0, 144, 144">
  <defs>
    <clipPath id="Clip_1">
      <path d="M8,0 L136,0 C140.418,0 144,3.582 144,8 L144,136 C144,140.418 140.418,144 136,144 L8,144 C3.582,144 0,140.418 0,136 L0,8 C0,3.582 3.582,0 8,0 z"/>
    </clipPath>
  </defs>
  <g id="Mask">
    <g>
      <path d="M8,0 L136,0 C140.418,0 144,3.582 144,8 L144,136 C144,140.418 140.418,144 136,144 L8,144 C3.582,144 0,140.418 0,136 L0,8 C0,3.582 3.582,0 8,0 z" fill="#FDF6E2"/>
      <g clip-path="url(#Clip_1)">
        <g>
          <path d="M0,0 L144,0 L144,144 L0,144 L0,0 z" fill="#FDF6E2"/>
          <path d="M69,66 L123,66 C127.971,66 132,70.029 132,75 L132,75 C132,79.971 127.971,84 123,84 L69,84 C64.029,84 60,79.971 60,75 L60,75 C60,70.029 64.029,66 69,66 z" fill="#FDF6E2"/>
          <path d="M6,15 L138,15 L138,31.719 L6,31.719 L6,15 z" fill="#20A198"/>
          <path d="M6,39 L72,39 L72,45 L6,45 L6,39 z" fill="#93A1A1"/>
          <path d="M6,51 L72,51 L72,57 L6,57 L6,51 z" fill="#93A1A1"/>
          <path d="M6,63 L72,63 L72,69 L6,69 L6,63 z" fill="#93A1A1"/>
          <path d="M6,75 L72,75 L72,81 L6,81 L6,75 z" fill="#93A1A1"/>
          <path d="M6,87 L72,87 L72,93 L6,93 L6,87 z" fill="#93A1A1"/>
          <path d="M6,99 L72,99 L72,105 L6,105 L6,99 z" fill="#93A1A1"/>
          <path d="M6,111 L72,111 L72,117 L6,117 L6,111 z" fill="#93A1A1"/>
          <path d="M78,75 L138,75 L138,81 L78,81 L78,75 z" fill="#93A1A1"/>
          <path d="M78,87 L138,87 L138,93 L78,93 L78,87 z" fill="#93A1A1"/>
          <path d="M78,99 L138,99 L138,105 L78,105 L78,99 z" fill="#93A1A1"/>
          <path d="M78,39 L138,39 L138,69 L78,69 L78,39 z" fill="#0E446A"/>
          <path d="M104.667,45 L104.667,45 L104.667,51 L104.667,51 L104.667,45 z" fill="#6D6D6D"/>
          <path d="M78,111 L138,111 L138,117 L78,117 L78,111 z" fill="#93A1A1"/>
          <path d="M6,123 L72,123 L72,129 L6,129 L6,123 z" fill="#93A1A1"/>
          <path d="M0,0 L144,0 L144,9.708 L0,9.708 L0,0 z" fill="#536A7A"/>
          <path d="M122.854,4.854 C122.854,6.195 121.768,7.281 120.427,7.281 C119.087,7.281 118,6.195 118,4.854 C118,3.514 119.087,2.427 120.427,2.427 C121.768,2.427 122.854,3.514 122.854,4.854 z" fill="#4ABB6C"/>
          <path d="M130.135,4.854 C130.135,6.195 129.049,7.281 127.708,7.281 C126.368,7.281 125.281,6.195 125.281,4.854 C125.281,3.514 126.368,2.427 127.708,2.427 C129.049,2.427 130.135,3.514 130.135,4.854 z" fill="#F1C500"/>
          <path d="M137.417,4.854 C137.417,6.195 136.33,7.281 134.99,7.281 C133.649,7.281 132.562,6.195 132.562,4.854 C132.562,3.514 133.649,2.427 134.99,2.427 C136.33,2.427 137.417,3.514 137.417,4.854 z" fill="#EF705D"/>
          <g>
            <path d="M0,0 L72,96 L90,72 L144,144 L0,144 L0,0 z" fill="#1C89D5"/>
            <path d="M0,0 L72,96 L90,72 L144,144 L0,144 L0,0 z M8,24 L8,136 L128,136 L90,85.333 L78.4,100.8 L72,109.333 L65.6,100.8 L8,24 z" fill="#0E446A"/>
          </g>
          <g>
            <path d="M0,144 L54,72 L72,96 L90,72 L144,144 L0,144 z" fill="#1C89D5"/>
            <path d="M90,72 L144,144 L0,144 L54,72 L72,96 L90,72 z M90,85.333 L78.4,100.8 L72,109.333 L65.6,100.8 L54,85.333 L16,136 L128,136 L90,85.333 z" fill="#0E446A"/>
          </g>
        </g>
      </g>
    </g>
  </g>
</svg>
